<svg width="24" height="20" viewBox="0 0 24 20" fill="none" xmlns="http://www.w3.org/2000/svg">
<path d="M23.2969 17.0313H0.703125C0.314812 17.0313 0 17.346 0 17.7344C0 18.8994 0.944391 19.8438 2.10938 19.8438H21.8906C23.0556 19.8438 24 18.8994 24 17.7344C24 17.346 23.6852 17.0313 23.2969 17.0313Z" fill="#7264D6"/>
<path d="M17.625 3.67194V3.32038C17.625 3.05394 17.4746 2.81089 17.2364 2.69141L12.3145 0.230471C12.1167 0.131611 11.8833 0.131611 11.6855 0.230471L6.76364 2.69141C6.52538 2.81089 6.375 3.05394 6.375 3.32038V3.67194C6.375 4.06058 6.68948 4.37506 7.07812 4.37506H16.9219C17.3105 4.37506 17.625 4.06058 17.625 3.67194Z" fill="#7264D6"/>
<path d="M8.48438 5.78125H11.2969V11.4062H8.48438V5.78125Z" fill="#7264D6"/>
<path d="M12.7031 5.78125H15.5156V11.4062H12.7031V5.78125Z" fill="#7264D6"/>
<path d="M5.01759 2.96875H2.10938C1.72073 2.96875 1.40625 3.28323 1.40625 3.67188V15.625H22.5938V3.67188C22.5938 3.28323 22.2793 2.96875 21.8906 2.96875H18.9824C19.002 3.08523 19.0312 3.19919 19.0312 3.32031V3.67188C19.0312 4.83503 18.085 5.78125 16.9219 5.78125V11.4062H17.625C18.0136 11.4062 18.3281 11.7207 18.3281 12.1094C18.3281 12.498 18.0136 12.8125 17.625 12.8125H6.375C5.98636 12.8125 5.67188 12.498 5.67188 12.1094C5.67188 11.7207 5.98636 11.4062 6.375 11.4062H7.07812V5.78125C5.91497 5.78125 4.96875 4.83503 4.96875 3.67188V3.32031C4.96875 3.19919 4.99795 3.08523 5.01759 2.96875Z" fill="#7264D6"/>
</svg>
